# xmcd
#
# Track frame offsets: 
#        150
#        12315
#        22029
#        32842
#        45593
#        51003
#        63190
#        76119
#        87346
#        97272
#        108655
#        118767
#        132008
#        142731
#
# Disc length: 2059 seconds
#
# Revision: 0
# Processed by: cddbd v1.5.2PL0 Copyright (c) Steve Scherf et al.
# Submitted via: ExactAudioCopy v0.99pb5
#
DISCID=b308090e
DTITLE=Various Artist - Country Stars [CD4]
DYEAR=2005
DGENRE=Country
TTITLE0=Slim Willett - Don't Let The Stars Get In Your Eyes
TTITLE1=Jimmy Dean - Freight Train Blues
TTITLE2=Johnny Paycheck - Heartbreak, Tennessee
TTITLE3=Dottie West - I Fall Into Pieces
TTITLE4=Webb Pierce - There Stands The Glass
TTITLE5=Hank Thompson - I Got A Humpty Dumpty Heart
TTITLE6=Glen Campbell - Rhinestone Cowboy (Live)
TTITLE7=Waylon Jennings - Sally Was A Good Old Girl
TTITLE8=Dave Dudley - Six Days On The Road
TTITLE9=Bobby Bare - That's How I Got To Memphis
TTITLE10=Patsy Cline - Three Cigarettes (In An Ashtray)
TTITLE11=Faron Young - Three Days
TTITLE12=Willie Nelson - Touch Me (Live)
TTITLE13=Billie Jo Spears - What Have They Done To My Song Ma
EXTD=
EXTT0=
EXTT1=
EXTT2=
EXTT3=
EXTT4=
EXTT5=
EXTT6=
EXTT7=
EXTT8=
EXTT9=
EXTT10=
EXTT11=
EXTT12=
EXTT13=
PLAYORDER=
